<?xml version="1.0" encoding="UTF-8" standalone="no"?>
<!-- Generator: Adobe Illustrator 25.2.3, SVG Export Plug-In . SVG Version: 6.00 Build 0)  -->

<svg
   version="1.1"
   id="Layer_1"
   x="0px"
   y="0px"
   viewBox="0 0 1225 143"
   xml:space="preserve"
   sodipodi:docname="company-logo-light.svg"
   width="1225"
   height="143"
   inkscape:version="1.3 (0e150ed6c4, 2023-07-21)"
   xmlns:inkscape="http://www.inkscape.org/namespaces/inkscape"
   xmlns:sodipodi="http://sodipodi.sourceforge.net/DTD/sodipodi-0.dtd"
   xmlns="http://www.w3.org/2000/svg"
   xmlns:svg="http://www.w3.org/2000/svg"><defs
   id="defs30" /><sodipodi:namedview
   id="namedview30"
   pagecolor="#505050"
   bordercolor="#eeeeee"
   borderopacity="1"
   inkscape:showpageshadow="0"
   inkscape:pageopacity="0"
   inkscape:pagecheckerboard="0"
   inkscape:deskcolor="#505050"
   inkscape:zoom="0.58466667"
   inkscape:cx="750"
   inkscape:cy="683.29532"
   inkscape:window-width="2048"
   inkscape:window-height="1083"
   inkscape:window-x="0"
   inkscape:window-y="0"
   inkscape:window-maximized="1"
   inkscape:current-layer="g30"
   showgrid="false" />&#10;<style
   type="text/css"
   id="style1">&#10;	.st0{fill:#FFFFFF;}&#10;	.st1{fill:#FF00DC;}&#10;	.st2{fill:#28F89A;}&#10;</style>&#10;&#10;<g
   id="g30"
   transform="translate(-137.7,-678.86)">&#10;	<g
   id="g21"
   style="fill:#000000">&#10;		<g
   id="g12"
   style="fill:#000000">&#10;			<path
   class="st0"
   d="m 599.66,780.6 v -97.74 h 72.05 v 12.84 h -57.39 v 29.33 h 37.42 v 12.43 h -37.42 v 30.3 h 57.94 v 12.84 z"
   id="path1"
   style="fill:#000000" />&#10;			<path
   class="st0"
   d="m 670.18,780.6 27.65,-36.44 -26.53,-34.63 h 16.48 l 18.29,24.29 18.16,-24.29 h 15.78 l -26.25,34.49 27.93,36.58 h -16.34 l -19.54,-26.25 -19.83,26.25 z"
   id="path2"
   style="fill:#000000" />&#10;			<path
   class="st0"
   d="m 772.24,781.85 c -6.79,0 -12,-1.58 -15.64,-4.75 -3.63,-3.16 -5.44,-7.86 -5.44,-14.1 v -41.76 h -15.08 v -11.72 h 15.08 V 691.5 l 13.82,-3.49 v 21.5 h 21.08 v 11.72 h -21.08 v 38.68 c 0,3.54 0.81,6.07 2.44,7.61 1.63,1.53 4.3,2.3 8.02,2.3 1.95,0 3.7,-0.14 5.24,-0.42 1.53,-0.28 3.18,-0.75 4.96,-1.4 v 11.87 c -1.87,0.65 -4.03,1.14 -6.5,1.47 -2.46,0.35 -4.76,0.51 -6.9,0.51 z"
   id="path3"
   style="fill:#000000" />&#10;			<path
   class="st0"
   d="m 789.27,780.6 v -71.21 h 13.96 v 9.22 c 2.24,-3.35 5,-5.96 8.31,-7.82 3.3,-1.86 7.05,-2.79 11.24,-2.79 2.89,0 5.26,0.37 7.12,1.12 v 12.56 c -1.31,-0.55 -2.65,-0.95 -4.05,-1.18 -1.4,-0.23 -2.84,-0.35 -4.33,-0.35 -4.01,0 -7.59,1.1 -10.76,3.28 -3.17,2.19 -5.67,5.37 -7.54,9.56 v 47.62 h -13.95 z"
   id="path4"
   style="fill:#000000" />&#10;			<path
   class="st0"
   d="m 853.79,781.85 c -5.21,0 -9.78,-0.9 -13.68,-2.72 -3.91,-1.82 -6.98,-4.35 -9.22,-7.61 -2.23,-3.26 -3.35,-7.03 -3.35,-11.31 0,-6.7 2.58,-11.96 7.75,-15.78 5.16,-3.82 12.16,-5.73 21.01,-5.73 6.98,0 13.4,1.25 19.26,3.77 v -7.39 c 0,-5.12 -1.44,-8.94 -4.33,-11.46 -2.89,-2.51 -7.17,-3.77 -12.84,-3.77 -3.26,0 -6.63,0.49 -10.13,1.46 -3.49,0.98 -7.43,2.5 -11.8,4.55 l -5.31,-10.48 c 5.31,-2.51 10.31,-4.35 15.01,-5.52 4.7,-1.16 9.43,-1.74 14.17,-1.74 9.22,0 16.36,2.19 21.43,6.56 5.07,4.38 7.6,10.62 7.6,18.71 v 47.2 h -13.82 v -6.14 c -3.07,2.51 -6.42,4.37 -10.05,5.58 -3.61,1.22 -7.52,1.82 -11.7,1.82 z M 840.8,759.79 c 0,3.54 1.49,6.37 4.47,8.51 2.98,2.15 6.84,3.21 11.59,3.21 3.73,0 7.17,-0.56 10.34,-1.67 3.16,-1.12 5.95,-2.84 8.37,-5.17 v -12.01 c -2.61,-1.49 -5.39,-2.61 -8.37,-3.35 -2.98,-0.74 -6.2,-1.11 -9.64,-1.11 -5.21,0 -9.31,1.07 -12.29,3.21 -2.99,2.15 -4.47,4.94 -4.47,8.38 z"
   id="path5"
   style="fill:#000000" />&#10;			<path
   class="st0"
   d="m 917.73,780.6 -30.72,-71.07 h 15.36 l 22.2,53.2 22.2,-53.2 h 14.94 l -30.72,71.07 z"
   id="path6"
   style="fill:#000000" />&#10;			<path
   class="st0"
   d="m 982.94,781.85 c -5.21,0 -9.78,-0.9 -13.68,-2.72 -3.91,-1.82 -6.98,-4.35 -9.22,-7.61 -2.23,-3.26 -3.35,-7.03 -3.35,-11.31 0,-6.7 2.58,-11.96 7.75,-15.78 5.16,-3.82 12.16,-5.73 21.01,-5.73 6.98,0 13.4,1.25 19.26,3.77 v -7.39 c 0,-5.12 -1.44,-8.94 -4.33,-11.46 -2.89,-2.51 -7.17,-3.77 -12.84,-3.77 -3.26,0 -6.63,0.49 -10.13,1.46 -3.49,0.98 -7.42,2.5 -11.8,4.55 l -5.31,-10.48 c 5.31,-2.51 10.31,-4.35 15.01,-5.52 4.7,-1.16 9.43,-1.74 14.17,-1.74 9.22,0 16.36,2.19 21.43,6.56 5.07,4.38 7.6,10.62 7.6,18.71 v 47.2 h -13.82 v -6.14 c -3.07,2.51 -6.42,4.37 -10.05,5.58 -3.61,1.22 -7.51,1.82 -11.7,1.82 z m -12.99,-22.06 c 0,3.54 1.49,6.37 4.47,8.51 2.98,2.15 6.84,3.21 11.59,3.21 3.73,0 7.17,-0.56 10.34,-1.67 3.16,-1.12 5.95,-2.84 8.37,-5.17 v -12.01 c -2.61,-1.49 -5.39,-2.61 -8.37,-3.35 -2.98,-0.74 -6.2,-1.11 -9.64,-1.11 -5.21,0 -9.31,1.07 -12.29,3.21 -2.99,2.15 -4.47,4.94 -4.47,8.38 z"
   id="path7"
   style="fill:#000000" />&#10;			<path
   class="st0"
   d="m 1062.66,810.48 c -5.11,0 -10.14,-0.61 -15.08,-1.81 -4.93,-1.21 -9.4,-2.93 -13.4,-5.17 l 5.44,-10.89 c 4.09,2.05 7.99,3.56 11.66,4.54 3.68,0.97 7.33,1.46 10.97,1.46 6.33,0 11.1,-1.39 14.31,-4.19 3.21,-2.79 4.82,-6.98 4.82,-12.57 v -8.09 c -6.14,4.93 -13.26,7.4 -21.36,7.4 -6.62,0 -12.62,-1.63 -18.02,-4.89 -5.39,-3.26 -9.71,-7.66 -12.91,-13.19 -3.21,-5.54 -4.82,-11.66 -4.82,-18.37 0,-6.79 1.63,-12.96 4.89,-18.5 3.25,-5.53 7.61,-9.91 13.05,-13.12 5.45,-3.21 11.52,-4.82 18.22,-4.82 3.91,0 7.66,0.61 11.25,1.81 3.58,1.21 6.91,3.03 9.98,5.45 v -6 h 13.68 v 72.19 c 0,9.3 -2.79,16.42 -8.37,21.36 -5.58,4.94 -13.69,7.4 -24.31,7.4 z m -0.83,-41.33 c 4,0 7.7,-0.75 11.1,-2.23 3.39,-1.49 6.21,-3.54 8.44,-6.14 v -32.12 c -2.14,-2.51 -4.93,-4.51 -8.37,-6 -3.45,-1.49 -7.17,-2.23 -11.17,-2.23 -4.47,0 -8.5,1.04 -12.08,3.14 -3.59,2.09 -6.42,4.97 -8.51,8.65 -2.09,3.67 -3.14,7.85 -3.14,12.49 0,4.57 1.05,8.69 3.14,12.36 2.09,3.68 4.95,6.61 8.58,8.79 3.62,2.19 7.62,3.29 12.01,3.29 z"
   id="path8"
   style="fill:#000000" />&#10;			<path
   class="st0"
   d="m 1127.45,781.85 c -5.21,0 -9.78,-0.9 -13.68,-2.72 -3.91,-1.82 -6.98,-4.35 -9.22,-7.61 -2.23,-3.26 -3.35,-7.03 -3.35,-11.31 0,-6.7 2.58,-11.96 7.75,-15.78 5.16,-3.82 12.16,-5.73 21.01,-5.73 6.98,0 13.4,1.25 19.26,3.77 v -7.39 c 0,-5.12 -1.44,-8.94 -4.33,-11.46 -2.89,-2.51 -7.17,-3.77 -12.84,-3.77 -3.26,0 -6.63,0.49 -10.13,1.46 -3.49,0.98 -7.42,2.5 -11.8,4.55 l -5.31,-10.48 c 5.31,-2.51 10.31,-4.35 15.01,-5.52 4.7,-1.16 9.43,-1.74 14.17,-1.74 9.22,0 16.36,2.19 21.43,6.56 5.07,4.38 7.6,10.62 7.6,18.71 v 47.2 h -13.82 v -6.14 c -3.07,2.51 -6.42,4.37 -10.05,5.58 -3.6,1.22 -7.51,1.82 -11.7,1.82 z m -12.99,-22.06 c 0,3.54 1.49,6.37 4.47,8.51 2.98,2.15 6.84,3.21 11.59,3.21 3.73,0 7.17,-0.56 10.34,-1.67 3.16,-1.12 5.95,-2.84 8.37,-5.17 v -12.01 c -2.61,-1.49 -5.39,-2.61 -8.37,-3.35 -2.98,-0.74 -6.2,-1.11 -9.64,-1.11 -5.21,0 -9.31,1.07 -12.29,3.21 -2.98,2.15 -4.47,4.94 -4.47,8.38 z"
   id="path9"
   style="fill:#000000" />&#10;			<path
   class="st0"
   d="m 1172.13,780.6 v -71.07 h 13.96 v 7.25 c 5.49,-5.77 12.62,-8.65 21.36,-8.65 5.49,0 10.31,1.17 14.45,3.49 4.14,2.33 7.4,5.58 9.78,9.77 2.37,4.2 3.56,9.04 3.56,14.52 v 44.68 h -13.96 v -42.31 c 0,-5.58 -1.58,-9.99 -4.75,-13.19 -3.16,-3.21 -7.49,-4.82 -12.98,-4.82 -3.73,0 -7.05,0.82 -9.99,2.44 -2.93,1.63 -5.42,3.93 -7.47,6.91 v 50.96 h -13.96 z"
   id="path10"
   style="fill:#000000" />&#10;			<path
   class="st0"
   d="m 1240.13,780.6 v -10.34 l 39.79,-48.59 h -39.51 v -12.14 h 57.11 v 10.19 l -39.93,48.87 h 40.63 v 12.01 z"
   id="path11"
   style="fill:#000000" />&#10;			<path
   class="st0"
   d="m 1326.7,781.85 c -5.21,0 -9.78,-0.9 -13.68,-2.72 -3.91,-1.82 -6.98,-4.35 -9.22,-7.61 -2.23,-3.26 -3.35,-7.03 -3.35,-11.31 0,-6.7 2.58,-11.96 7.75,-15.78 5.16,-3.82 12.16,-5.73 21.01,-5.73 6.98,0 13.4,1.25 19.26,3.77 v -7.39 c 0,-5.12 -1.44,-8.94 -4.33,-11.46 -2.89,-2.51 -7.17,-3.77 -12.84,-3.77 -3.26,0 -6.63,0.49 -10.13,1.46 -3.49,0.98 -7.42,2.5 -11.8,4.55 l -5.31,-10.48 c 5.31,-2.51 10.31,-4.35 15.01,-5.52 4.7,-1.16 9.43,-1.74 14.17,-1.74 9.22,0 16.36,2.19 21.43,6.56 5.07,4.38 7.6,10.62 7.6,18.71 v 47.2 h -13.82 v -6.14 c -3.07,2.51 -6.42,4.37 -10.05,5.58 -3.61,1.22 -7.51,1.82 -11.7,1.82 z m -12.99,-22.06 c 0,3.54 1.49,6.37 4.47,8.51 2.98,2.15 6.84,3.21 11.59,3.21 3.73,0 7.17,-0.56 10.34,-1.67 3.16,-1.12 5.95,-2.84 8.37,-5.17 v -12.01 c -2.61,-1.49 -5.39,-2.61 -8.37,-3.35 -2.98,-0.74 -6.2,-1.11 -9.64,-1.11 -5.21,0 -9.31,1.07 -12.29,3.21 -2.98,2.15 -4.47,4.94 -4.47,8.38 z"
   id="path12"
   style="fill:#000000" />&#10;		</g>&#10;		<g
   id="g20"
   style="fill:#000000">&#10;			<path
   class="st0"
   d="m 1106.91,820.46 c -1.36,-0.45 -2.43,-1.04 -3.21,-1.76 l 1.03,-2.16 c 0.74,0.66 1.69,1.21 2.85,1.62 1.15,0.42 2.34,0.62 3.56,0.62 1.61,0 2.81,-0.27 3.6,-0.82 0.8,-0.54 1.2,-1.27 1.2,-2.18 0,-0.66 -0.22,-1.21 -0.65,-1.62 -0.44,-0.42 -0.97,-0.74 -1.61,-0.96 -0.64,-0.23 -1.54,-0.47 -2.71,-0.75 -1.46,-0.35 -2.64,-0.7 -3.53,-1.05 -0.9,-0.35 -1.67,-0.9 -2.3,-1.63 -0.63,-0.73 -0.96,-1.71 -0.96,-2.95 0,-1.04 0.27,-1.98 0.82,-2.81 0.54,-0.83 1.38,-1.49 2.48,-1.99 1.11,-0.5 2.49,-0.75 4.13,-0.75 1.15,0 2.28,0.15 3.39,0.44 1.11,0.3 2.07,0.72 2.86,1.28 l -0.92,2.22 c -0.82,-0.52 -1.68,-0.91 -2.61,-1.18 -0.93,-0.26 -1.83,-0.4 -2.72,-0.4 -1.57,0 -2.75,0.28 -3.53,0.86 -0.78,0.58 -1.18,1.32 -1.18,2.22 0,0.67 0.23,1.21 0.67,1.63 0.44,0.41 1,0.74 1.65,0.97 0.65,0.23 1.55,0.47 2.68,0.73 1.46,0.35 2.64,0.71 3.53,1.06 0.89,0.35 1.65,0.89 2.29,1.61 0.64,0.72 0.96,1.69 0.96,2.91 0,1.02 -0.28,1.95 -0.83,2.79 -0.55,0.84 -1.39,1.51 -2.52,2 -1.13,0.49 -2.52,0.74 -4.16,0.74 -1.49,-0.01 -2.89,-0.24 -4.26,-0.69 z"
   id="path13"
   style="fill:#000000" />&#10;			<path
   class="st0"
   d="m 1140.06,819.85 c -1.57,-0.86 -2.81,-2.05 -3.7,-3.56 -0.9,-1.52 -1.35,-3.21 -1.35,-5.08 0,-1.87 0.45,-3.56 1.35,-5.08 0.9,-1.51 2.13,-2.7 3.7,-3.56 1.57,-0.86 3.34,-1.29 5.3,-1.29 1.95,0 3.7,0.44 5.28,1.29 1.57,0.86 2.8,2.05 3.69,3.56 0.89,1.5 1.33,3.21 1.33,5.09 0,1.88 -0.44,3.59 -1.33,5.09 -0.89,1.51 -2.12,2.69 -3.69,3.56 -1.57,0.86 -3.33,1.29 -5.28,1.29 -1.96,-0.02 -3.73,-0.46 -5.3,-1.31 z m 9.15,-2.16 c 1.14,-0.65 2.04,-1.54 2.69,-2.68 0.65,-1.14 0.99,-2.4 0.99,-3.81 0,-1.41 -0.33,-2.68 -0.99,-3.81 -0.65,-1.14 -1.56,-2.03 -2.69,-2.68 -1.14,-0.65 -2.42,-0.97 -3.84,-0.97 -1.42,0 -2.72,0.32 -3.87,0.97 -1.16,0.65 -2.06,1.53 -2.72,2.68 -0.65,1.14 -0.98,2.4 -0.98,3.81 0,1.41 0.33,2.68 0.98,3.81 0.66,1.14 1.56,2.03 2.72,2.68 1.15,0.65 2.44,0.97 3.87,0.97 1.42,0.01 2.7,-0.31 3.84,-0.97 z"
   id="path14"
   style="fill:#000000" />&#10;			<path
   class="st0"
   d="m 1176.56,803.9 v 6.77 h 9.74 v 2.39 h -9.74 v 7.85 h -2.78 v -19.43 h 13.71 v 2.41 h -10.93 z"
   id="path15"
   style="fill:#000000" />&#10;			<path
   class="st0"
   d="m 1209.28,803.9 h -6.66 v -2.41 h 16.07 v 2.41 h -6.66 v 17.01 h -2.75 z"
   id="path16"
   style="fill:#000000" />&#10;			<path
   class="st0"
   d="m 1262.82,801.49 -6.49,19.43 h -2.92 l -5.3,-15.51 -5.3,15.51 h -2.97 l -6.49,-19.43 h 2.86 l 5.25,15.79 5.47,-15.79 h 2.55 l 5.35,15.88 5.35,-15.88 z"
   id="path17"
   style="fill:#000000" />&#10;			<path
   class="st0"
   d="m 1291.85,816.06 h -10.33 l -2.13,4.86 h -2.86 l 8.8,-19.43 h 2.75 l 8.83,19.43 h -2.92 z m -0.98,-2.22 -4.19,-9.52 -4.2,9.52 z"
   id="path18"
   style="fill:#000000" />&#10;			<path
   class="st0"
   d="m 1326.64,820.91 -4.19,-5.97 c -0.52,0.04 -0.93,0.05 -1.22,0.05 h -4.8 v 5.92 h -2.78 v -19.43 h 7.58 c 2.51,0 4.5,0.6 5.94,1.81 1.44,1.2 2.16,2.86 2.16,4.97 0,1.5 -0.37,2.78 -1.11,3.83 -0.74,1.06 -1.79,1.82 -3.16,2.3 l 4.61,6.52 z m -1.47,-9.4 c 0.93,-0.75 1.39,-1.84 1.39,-3.25 0,-1.41 -0.46,-2.48 -1.39,-3.23 -0.93,-0.75 -2.26,-1.13 -4.02,-1.13 h -4.72 v 8.74 h 4.72 c 1.76,0 3.1,-0.37 4.02,-1.13 z"
   id="path19"
   style="fill:#000000" />&#10;			<path
   class="st0"
   d="m 1361.81,818.5 v 2.41 h -14.1 v -19.43 h 13.71 v 2.41 h -10.94 v 5.97 h 9.74 v 2.36 h -9.74 v 6.27 h 11.33 z"
   id="path20"
   style="fill:#000000" />&#10;		</g>&#10;	</g>&#10;	<g
   id="g29">&#10;		<g
   id="g26">&#10;			<g
   id="g22">&#10;				<path
   class="st1"
   d="m 226.44,712.76 c 9.4,0 16.9,-7.49 16.9,-16.9 0,-9.4 -7.49,-16.9 -16.9,-16.9 -9.4,0 -16.9,7.49 -16.9,16.9 0,9.41 7.49,16.9 16.9,16.9 z"
   id="path21" />&#10;			</g>&#10;			<g
   id="g23">&#10;				<path
   class="st1"
   d="m 316.18,723.76 h -15.3 c -9.24,0 -16.74,7.65 -16.74,17.06 0,9.25 7.49,16.74 16.74,16.74 h 15.3 c 9.25,0 16.74,-7.65 16.74,-17.06 -0.01,-9.25 -7.5,-16.74 -16.74,-16.74 z"
   id="path22" />&#10;			</g>&#10;			<g
   id="g24">&#10;				<path
   class="st1"
   d="m 457.37,678.86 h -15.3 c -9.24,0 -16.74,7.65 -16.74,17.06 0,9.25 7.49,16.74 16.74,16.74 h 15.3 c 9.25,0 16.74,-7.65 16.74,-17.06 -0.01,-9.25 -7.5,-16.74 -16.74,-16.74 z"
   id="path23" />&#10;			</g>&#10;			<g
   id="g25">&#10;				<path
   class="st2"
   d="m 473.07,796.34 c -1.75,3.83 -5.58,6.21 -9.72,6.21 H 444.7 c -3.19,0 -6.22,-1.43 -8.29,-3.98 l -25.03,-29.96 -24.87,29.96 c -2.07,2.55 -5.1,3.98 -8.29,3.98 h -41.76 l 51.64,-62 -51.49,-61.69 h 41.6 c 3.19,0 6.22,1.44 8.29,3.98 l 85.12,102.02 c 2.73,3.19 3.2,7.65 1.45,11.48 z"
   id="path24" />&#10;			</g>&#10;			<path
   class="st2"
   d="m 271.07,678.97 c -9.25,0 -16.74,7.65 -16.74,17.06 0,9.25 7.49,16.74 16.74,16.74 h 61.85 v -33.79 h -61.85 z"
   id="path25" />&#10;			<path
   class="st2"
   d="m 243.33,768.55 v -11 h 13.07 c 9.25,0 16.74,-7.65 16.74,-17.06 0,-9.25 -7.49,-16.74 -16.74,-16.74 h -30.13 c -9.25,0 -16.74,7.49 -16.74,16.74 v 45.11 c 0,9.24 7.49,16.73 16.74,16.73 H 332.91 V 768.6 Z"
   id="path26" />&#10;		</g>&#10;		<g
   id="g27">&#10;			<polygon
   class="st0"
   points="193.49,679.02 156.35,740.71 193.49,802.55 174.84,802.55 137.7,740.71 174.68,679.02 "
   id="polygon26"
   style="fill:#000000" />&#10;		</g>&#10;		<g
   id="g28"
   style="fill:#000000">&#10;			<polygon
   class="st0"
   points="508.69,679.02 545.67,740.71 508.69,802.55 490.04,802.55 527.02,740.71 490.04,679.02 "
   id="polygon27"
   style="fill:#000000" />&#10;		</g>&#10;	</g>&#10;</g>&#10;</svg>
